# xmcd
#
# Track frame offsets:
#	183
#	11830
#	25565
#	38318
#	51273
#	63283
#	76990
#	87935
#	101315
#	113550
#	125515
#	137685
#	149243
#	157308
#	168905
#	179638
#	196718
#	210848
#	221465
#	227123
#
# Disc length: 3147
#
# Revision: 1
# Processed by: cddbd v1.5.1PL0 Copyright (c) Steve Scherf et al.
# Submitted via: CDex 1.51
# Normalized: r0:DSETVAR2
#
DISCID=090c4914
DTITLE=Various Artist - Country Gold - Vol. 2
DYEAR=1900
DGENRE=Country
TTITLE0=Patsy Cline - Walkin´ After Midnight
TTITLE1=Waylon Jenning - Love Of The Common People
TTITLE2=Vern Gostin - When Loves Takes Over Your Life
TTITLE3=Johny Paycheck - Take This Job And Shove It
TTITLE4=Ernest Tubb and George Jones - Half A Mind
TTITLE5=Vernon Gosdin - Just Give Me What You Think Is Fair
TTITLE6=Waylon Jennings - Mental Revenge
TTITLE7=Johnny Paycheck - She´s All I Got
TTITLE8=Patsy Cline - A Poor Man´s Rose (Or A Rich Man´s Gold)
TTITLE9=Roy Clark - Are You From Dixie, ´Cause I´m From Dixie, Too
TTITLE10=Ernest Tubb and Loretta Lynn - Thanks A Lot
TTITLE11=Willie Nelson - I´m Gonna Lose A Lot Of Teardrops
TTITLE12=George Jones - Jambalaya (On The Bayou)
TTITLE13=Roger Miller - Walkin´ In The Sunshine
TTITLE14=Kittzy Wells - Lonely Street
TTITLE15=Janie Fricke - Blowin´InThe Wind
TTITLE16=George Jones - Cold, Cold Heart
TTITLE17=Roger Miller - When Two Worlds Collide
TTITLE18=Willie Nelson - The Gost
TTITLE19=Kitty Wells - I´ll Repossess My Heart
EXTD=
EXTT0=
EXTT1=
EXTT2=
EXTT3=
EXTT4=
EXTT5=
EXTT6=
EXTT7=
EXTT8=
EXTT9=
EXTT10=
EXTT11=
EXTT12=
EXTT13=
EXTT14=
EXTT15=
EXTT16=
EXTT17=
EXTT18=
EXTT19=
PLAYORDER=
